# xmcd
#
# Track frame offsets:
# 150
# 21126
# 37312
# 56071
# 77690
# 96071
# 114044
# 131943
# 149076
# 165480
# 183002
#
# Disc length: 2908 seconds
#
# Revision: 0
# Processed by: cddbd v1.4b42PL1 Copyright (c) Steve Scherf et al.
# Submitted via: Audion 2.5.0 (http://www.panic.com/audion/)
#
DISCID=920b5a0b
DTITLE=Rés - How I Do
DYEAR=1900
DGENRE=
TTITLE0=Golden Boys
TTITLE1=They Say Vision
TTITLE2=700 Mile Situation
TTITLE3=Ice King
TTITLE4=Sittin' Back
TTITLE5=How I Do
TTITLE6=If There Aint Nothin'
TTITLE7=The Hustler
TTITLE8=I've Known the Garden
TTITLE9=Let Love
TTITLE10=Tsunami
EXTD=
EXTT0=
EXTT1=
EXTT2=
EXTT3=
EXTT4=
EXTT5=
EXTT6=
EXTT7=
EXTT8=
EXTT9=
EXTT10=
PLAYORDER=
